HIERARCHY
ROOT Hips
{
	OFFSET 0.000000 88.474243 0.000000
	CHANNELS 6 Xposition Yposition Zposition Zrotation Yrotation Xrotation 
	JOINT Hips_Spine
	{
		OFFSET 0.000000 0.000000 0.000000
		CHANNELS 3 Zrotation Yrotation Xrotation
		JOINT Spine
		{
			OFFSET 0.005100 8.711998 -0.691000
			CHANNELS 3 Zrotation Yrotation Xrotation
			JOINT Spine1
			{
				OFFSET -0.009200 8.660301 -1.275000
				CHANNELS 3 Zrotation Yrotation Xrotation
				JOINT Spine2
				{
					OFFSET 0.006300 9.852501 -1.857000
					CHANNELS 3 Zrotation Yrotation Xrotation
					JOINT Spine2_Neck
					{
						OFFSET 0.000000 0.000000 0.000000
						CHANNELS 3 Zrotation Yrotation Xrotation
						JOINT Neck
						{
							OFFSET 0.016300 11.420799 -0.263300
							CHANNELS 3 Zrotation Yrotation Xrotation
							End Site #name: Head
							{
								OFFSET -0.019200 9.262405 2.362500
							}
						}
					}
					JOINT Spine2_LeftShoulder
					{
						OFFSET 0.000000 0.000000 0.000000
						CHANNELS 3 Zrotation Yrotation Xrotation
						JOINT LeftShoulder
						{
							OFFSET 5.616900 6.732201 -0.345700
							CHANNELS 3 Zrotation Yrotation Xrotation
							JOINT LeftArm
							{
								OFFSET 10.664888 -0.183372 -2.440700
								CHANNELS 3 Zrotation Yrotation Xrotation
								JOINT LeftForeArm
								{
									OFFSET 27.459126 0.000000 0.000000
									CHANNELS 3 Zrotation Yrotation Xrotation
									End Site #name: LeftHand
									{
										OFFSET 21.306858 0.000000 0.000000
									}
								}
							}
						}
					}
					JOINT Spine2_RightShoulder
					{
						OFFSET 0.000000 0.000000 0.000000
						CHANNELS 3 Zrotation Yrotation Xrotation
						JOINT RightShoulder
						{
							OFFSET -5.580300 6.737503 -0.344400
							CHANNELS 3 Zrotation Yrotation Xrotation
							JOINT RightArm
							{
								OFFSET -10.679335 -0.188484 -2.383900
								CHANNELS 3 Zrotation Yrotation Xrotation
								JOINT RightForeArm
								{
									OFFSET -27.503529 0.000000 0.000000
									CHANNELS 3 Zrotation Yrotation Xrotation
									End Site #name: RightHand
									{
										OFFSET -21.306808 0.000000 0.000000
									}
								}
							}
						}
					}
				}
			}
		}
	}
	JOINT Hips_LeftUpLeg
	{
		OFFSET 0.000000 0.000000 0.000000
		CHANNELS 3 Zrotation Yrotation Xrotation
		JOINT LeftUpLeg
		{
			OFFSET 6.857700 -6.739601 0.312100
			CHANNELS 3 Zrotation Yrotation Xrotation
			JOINT LeftLeg
			{
				OFFSET -0.367590 -34.731552 -4.572400
				CHANNELS 3 Zrotation Yrotation Xrotation
				End Site #name: LeftFoot
				{
					OFFSET 0.367590 -34.656704 -6.067400
				}
			}
		}
	}
	JOINT Hips_RightUpLeg
	{
		OFFSET 0.000000 0.000000 0.000000
		CHANNELS 3 Zrotation Yrotation Xrotation
		JOINT RightUpLeg
		{
			OFFSET -6.876100 -6.733299 0.301000
			CHANNELS 3 Zrotation Yrotation Xrotation
			JOINT RightLeg
			{
				OFFSET 0.347353 -34.795158 -4.515900
				CHANNELS 3 Zrotation Yrotation Xrotation
				End Site #name: RightFoot
				{
					OFFSET -0.347353 -34.589367 -6.070300
				}
			}
		}
	}
}
MOTION
Frames: 13
Frame Time: 0.041667
-3.695413 -2.131935 -3.721267 -8.893923 25.610139 -3.211416 0.000000 -0.000000 -0.000000 3.220308 -1.199783 -2.360482 3.315396 -0.444115 3.467701 0.000000 0.000000 0.000000 4.347512 -0.200358 4.512978 -2.510323 -15.325376 -8.592820 2.472836 -0.009309 2.878997 -8.641064 -6.418413 -0.620595 -91.452490 -18.250454 -25.800381 -1.741458 28.599096 0.432581 3.743182 -1.050100 3.391881 5.866891 9.131398 4.378306 37.283503 27.790069 -45.987753 178.445442 56.657984 -177.024457 0.000000 -0.000000 -0.000000 3.898840 16.701159 -21.036181 -4.389237 -13.056822 9.784924 0.000000 0.000000 0.000000 4.354756 -9.608890 -0.350169 13.469990 7.298901 -1.516177 
-3.801710 -2.184057 -3.839223 -8.856752 25.585446 -3.228580 0.000000 -0.000000 -0.000000 3.258192 -1.196787 -2.371791 3.385202 -0.431382 3.463193 0.000000 0.000000 0.000000 4.395698 -0.200076 4.508207 -2.501489 -15.337385 -8.562952 2.514585 0.012965 2.881982 -8.554024 -6.517231 -0.593788 -91.584844 -18.293148 -25.788888 -1.742659 28.507322 0.430021 3.806439 -1.036331 3.394948 6.077282 9.130105 4.480367 38.028908 27.734731 -44.734191 178.503263 57.190340 -176.985888 0.000000 -0.000000 -0.000000 3.935276 16.695433 -20.970819 -4.391434 -13.067689 9.765834 0.000000 0.000000 0.000000 4.363977 -9.681887 -0.332922 13.473353 7.294106 -1.481652 
-3.909553 -2.236222 -3.958097 -8.821315 25.573061 -3.249104 0.000000 -0.000000 -0.000000 3.289224 -1.191962 -2.380906 3.452743 -0.418260 3.458599 0.000000 0.000000 0.000000 4.441743 -0.199967 4.505139 -2.495606 -15.333324 -8.536213 2.554184 0.036358 2.887172 -8.467343 -6.623867 -0.561517 -91.720993 -18.332790 -25.756730 -1.739390 28.409534 0.438152 3.867188 -1.022276 3.397943 6.283958 9.144234 4.585684 38.786838 27.688747 -43.453323 178.564972 57.738826 -176.942908 0.000000 -0.000000 -0.000000 3.964755 16.686189 -20.903128 -4.395450 -13.086949 9.732548 0.000000 0.000000 0.000000 4.370152 -9.757268 -0.318386 13.474979 7.286389 -1.450109 
-4.018745 -2.288571 -4.078013 -8.786047 25.567121 -3.270303 0.000000 -0.000000 -0.000000 3.318721 -1.185788 -2.387511 3.519638 -0.403559 3.452788 0.000000 0.000000 0.000000 4.486273 -0.198963 4.500613 -2.493947 -15.317080 -8.511411 2.586491 0.060061 2.892043 -8.375049 -6.732855 -0.529469 -91.848865 -18.371104 -25.711113 -1.738370 28.315860 0.445403 3.925672 -1.007218 3.399545 6.491887 9.151003 4.692213 39.534617 27.646390 -42.168606 178.625661 58.291720 -176.896657 0.000000 -0.000000 -0.000000 3.990588 16.671657 -20.840289 -4.399887 -13.095175 9.703916 0.000000 0.000000 0.000000 4.378821 -9.820253 -0.301235 13.479226 7.275437 -1.421034 
-4.129402 -2.341159 -4.199169 -8.751767 25.556614 -3.291398 0.000000 -0.000000 -0.000000 3.341941 -1.177758 -2.392140 3.580859 -0.387838 3.443384 0.000000 0.000000 0.000000 4.528283 -0.197765 4.495011 -2.499010 -15.286097 -8.482713 2.615608 0.085749 2.892725 -8.292340 -6.849606 -0.486985 -91.969934 -18.393924 -25.666962 -1.735212 28.227691 0.460087 3.978324 -0.990123 3.400729 6.689163 9.180092 4.808236 40.456175 27.571058 -40.657062 178.679434 58.865569 -176.853730 0.000000 -0.000000 -0.000000 4.013155 16.658913 -20.777377 -4.403765 -13.105219 9.667693 0.000000 0.000000 0.000000 4.385270 -9.874929 -0.287067 13.481377 7.264601 -1.392729 
-4.241158 -2.393982 -4.321762 -8.718520 25.543928 -3.310447 0.000000 -0.000000 -0.000000 3.357932 -1.171160 -2.391437 3.638436 -0.379845 3.430045 0.000000 0.000000 0.000000 4.566551 -0.195999 4.486588 -2.506784 -15.241332 -8.458872 2.642726 0.113400 2.896106 -8.202151 -6.963892 -0.450380 -92.080365 -18.421202 -25.623138 -1.734138 28.153900 0.475297 4.027576 -0.971488 3.398514 6.866644 9.243871 4.931192 41.401512 27.468545 -39.108018 178.731240 59.353488 -176.811456 0.000000 -0.000000 -0.000000 4.032448 16.645547 -20.718867 -4.405054 -13.102881 9.630166 0.000000 0.000000 0.000000 4.389996 -9.926506 -0.273402 13.482078 7.245750 -1.360600 
-4.354599 -2.447223 -4.446087 -8.685862 25.504678 -3.325717 0.000000 -0.000000 -0.000000 3.368492 -1.157674 -2.385684 3.691023 -0.371734 3.413350 0.000000 0.000000 0.000000 4.601612 -0.193534 4.477084 -2.509064 -15.179003 -8.437716 2.667679 0.140546 2.894847 -8.113705 -7.089582 -0.408843 -92.189084 -18.451559 -25.600494 -1.734007 28.097081 0.485974 4.072408 -0.951751 3.393677 7.012638 9.339563 5.052577 42.323115 27.337640 -37.616119 178.777075 59.763250 -176.773403 0.000000 -0.000000 -0.000000 4.050367 16.635847 -20.666458 -4.404470 -13.091176 9.601093 0.000000 0.000000 0.000000 4.393470 -9.982617 -0.268879 13.478741 7.227773 -1.317312 
-4.469394 -2.501117 -4.571969 -8.656594 25.470172 -3.343358 0.000000 -0.000000 -0.000000 3.375103 -1.145914 -2.377927 3.737691 -0.362818 3.391019 0.000000 0.000000 0.000000 4.630756 -0.190458 4.460531 -2.504830 -15.099765 -8.411653 2.689633 0.167201 2.887037 -8.024615 -7.222983 -0.364306 -92.308198 -18.470518 -25.586712 -1.731964 28.066771 0.501228 4.110403 -0.931510 3.382022 7.140066 9.451228 5.168254 43.194434 27.178061 -36.205148 178.828051 60.066908 -176.729255 0.000000 -0.000000 -0.000000 4.064656 16.629197 -20.621640 -4.400050 -13.066804 9.574118 0.000000 0.000000 0.000000 4.397642 -10.043149 -0.263853 13.470251 7.204728 -1.278532 
-4.585368 -2.555752 -4.699587 -8.630934 25.472147 -3.365878 0.000000 -0.000000 -0.000000 3.369340 -1.137024 -2.368747 3.770873 -0.353288 3.358206 0.000000 0.000000 0.000000 4.650593 -0.187063 4.432960 -2.491472 -15.015071 -8.387372 2.706764 0.190866 2.862681 -7.940715 -7.359999 -0.316940 -92.434985 -18.495535 -25.592397 -1.731837 28.051807 0.510200 4.136485 -0.911920 3.361151 7.266980 9.608291 5.275189 43.887207 27.071346 -35.150769 178.878701 60.223686 -176.684266 0.000000 -0.000000 -0.000000 4.077490 16.622034 -20.584078 -4.397529 -13.040751 9.550829 0.000000 0.000000 0.000000 4.404978 -10.095730 -0.267234 13.459346 7.180513 -1.231548 
-4.702962 -2.611253 -4.828957 -8.608196 25.486129 -3.388208 0.000000 -0.000000 -0.000000 3.343557 -1.128901 -2.356571 3.790640 -0.343289 3.317704 0.000000 0.000000 0.000000 4.661792 -0.181448 4.396631 -2.473070 -14.923203 -8.371441 2.719107 0.212415 2.828296 -7.851375 -7.501640 -0.269408 -92.545903 -18.515009 -25.596898 -1.731285 28.051946 0.523290 4.152084 -0.891228 3.325372 7.396817 9.793534 5.362198 44.544890 26.973850 -34.160074 178.923704 60.270870 -176.641976 0.000000 -0.000000 -0.000000 4.089070 16.611764 -20.544927 -4.393372 -13.008508 9.518434 0.000000 0.000000 0.000000 4.414020 -10.165163 -0.268493 13.439699 7.153252 -1.190106 
-4.821787 -2.667583 -4.960101 -8.586759 25.517635 -3.414858 0.000000 -0.000000 -0.000000 3.305883 -1.120121 -2.337003 3.799421 -0.334600 3.274599 0.000000 0.000000 0.000000 4.664956 -0.174725 4.356358 -2.458221 -14.821332 -8.367627 2.726565 0.231461 2.785107 -7.764124 -7.643825 -0.223140 -92.657115 -18.531400 -25.614051 -1.728999 28.066647 0.533600 4.157333 -0.870097 3.285641 7.515157 10.028331 5.437461 45.176584 26.886654 -33.203582 178.961861 60.251109 -176.606117 0.000000 -0.000000 -0.000000 4.096516 16.602166 -20.505164 -4.392853 -12.983034 9.475657 0.000000 0.000000 0.000000 4.428681 -10.216864 -0.276871 13.410844 7.124452 -1.143362 
-4.941653 -2.724717 -5.093005 -8.566702 25.569542 -3.441306 0.000000 -0.000000 -0.000000 3.259636 -1.100141 -2.318261 3.791778 -0.324574 3.231427 0.000000 0.000000 0.000000 4.659710 -0.166636 4.311754 -2.451479 -14.712182 -8.377245 2.728458 0.247036 2.742783 -7.680842 -7.790823 -0.171484 -92.752422 -18.547757 -25.640637 -1.726972 28.101844 0.548048 4.153060 -0.851045 3.241907 7.626054 10.297748 5.507827 45.797161 26.804584 -32.281592 178.998186 60.182242 -176.570944 0.000000 -0.000000 -0.000000 4.100589 16.586118 -20.467135 -4.392235 -12.954617 9.416835 0.000000 -0.000000 0.000000 4.440983 -10.287409 -0.288366 13.373804 7.093352 -1.097316 
-5.062439 -2.782778 -5.227526 -8.546192 25.656610 -3.468346 0.000000 -0.000000 -0.000000 3.206311 -1.086079 -2.294306 3.771694 -0.315790 3.186647 0.000000 0.000000 0.000000 4.646589 -0.158060 4.265252 -2.456959 -14.604084 -8.397647 2.724659 0.260777 2.698146 -7.606309 -7.929517 -0.123821 -92.834201 -18.550883 -25.673573 -1.727915 28.174812 0.554229 4.136466 -0.830221 3.195531 7.740637 10.599551 5.574425 46.393821 26.720791 -31.407832 179.030564 60.087387 -176.539271 0.000000 -0.000000 -0.000000 4.097580 16.561065 -20.429743 -4.394233 -12.936072 9.342640 0.000000 -0.000000 0.000000 4.455899 -10.333794 -0.307477 13.326087 7.058733 -1.056231 
